<svg width="40" height="40" viewBox="0 0 40 40" fill="none" xmlns="http://www.w3.org/2000/svg">
<path d="M33.3333 13.3333L20 21.6667L6.66667 13.3333V10L20 18.3333L33.3333 10M33.3333 6.66667H6.66667C4.81667 6.66667 3.33333 8.15 3.33333 10V30C3.33333 30.8841 3.68452 31.7319 4.30964 32.357C4.93477 32.9821 5.78261 33.3333 6.66667 33.3333H33.3333C34.2174 33.3333 35.0652 32.9821 35.6904 32.357C36.3155 31.7319 36.6667 30.8841 36.6667 30V10C36.6667 9.11595 36.3155 8.2681 35.6904 7.64298C35.0652 7.01786 34.2174 6.66667 33.3333 6.66667Z" fill="black"/>
</svg>
